<svg width="24" height="25" viewBox="0 0 24 25" fill="none" xmlns="http://www.w3.org/2000/svg">
<path d="M17.5172 13.0555C17.5078 11.457 18.232 10.2523 19.6945 9.36406C18.8766 8.19219 17.6391 7.54766 16.0078 7.42344C14.4633 7.30156 12.7734 8.32344 12.1547 8.32344C11.5008 8.32344 10.0055 7.46563 8.82891 7.46563C6.40078 7.50313 3.82031 9.40156 3.82031 13.2641C3.82031 14.4055 4.02891 15.5844 4.44609 16.7984C5.00391 18.3969 7.01484 22.3133 9.1125 22.25C10.2094 22.2242 10.9852 21.4719 12.4125 21.4719C13.7977 21.4719 14.5148 22.25 15.7383 22.25C17.8547 22.2195 19.6734 18.6594 20.2031 17.0563C17.3648 15.718 17.5172 13.1375 17.5172 13.0555ZM15.0539 5.90703C16.2422 4.49609 16.1344 3.21172 16.0992 2.75C15.0492 2.81094 13.8352 3.46484 13.1437 4.26875C12.382 5.13125 11.9344 6.19766 12.0305 7.4C13.1648 7.48672 14.2008 6.90313 15.0539 5.90703Z" fill="#313131"/>
</svg>
