<svg width="201" height="56" viewBox="0 0 201 56" fill="none" xmlns="http://www.w3.org/2000/svg">
<rect x="1.39258" y="1" width="198" height="54" rx="9" fill="#141011"/>
<rect x="1.39258" y="1" width="198" height="54" rx="9" stroke="#E7EBE6" stroke-width="2"/>
<path fill-rule="evenodd" clip-rule="evenodd" d="M48.5643 17.8703C49.5427 16.6073 50.2844 14.8222 50.0161 13C48.417 13.1111 46.5479 14.1342 45.4573 15.4678C44.4631 16.6761 43.646 18.4736 43.9651 20.2182C45.7133 20.2729 47.5175 19.225 48.5643 17.8703ZM57.2051 35.0108C56.5055 36.5701 56.1688 37.2669 55.2676 38.6481C54.0104 40.5761 52.2377 42.9769 50.0389 42.9945C48.0874 43.0157 47.5841 41.7156 44.9347 41.7315C42.2853 41.7456 41.733 43.0192 39.778 42.9998C37.581 42.9804 35.9012 40.8142 34.644 38.8862C31.1267 33.499 30.7567 27.1752 32.9256 23.8114C34.4686 21.4229 36.9024 20.0259 39.1888 20.0259C41.5156 20.0259 42.9797 21.3101 44.9067 21.3101C46.7758 21.3101 47.9138 20.0224 50.6053 20.0224C52.6427 20.0224 54.8012 21.1389 56.3372 23.0652C51.3014 25.8417 52.1167 33.0757 57.2051 35.0108Z" fill="white"/>
<path d="M70.0233 19.5H67.0659V10.7727H70.0829C70.9494 10.7727 71.6937 10.9474 72.3159 11.2969C72.9409 11.6435 73.421 12.142 73.7562 12.7926C74.0914 13.4432 74.2591 14.2216 74.2591 15.1278C74.2591 16.0369 74.09 16.8182 73.752 17.4716C73.4167 18.125 72.9324 18.6264 72.2988 18.9759C71.6681 19.3253 70.9096 19.5 70.0233 19.5ZM68.6468 18.1321H69.9466C70.5545 18.1321 71.0616 18.0213 71.4679 17.7997C71.8741 17.5753 72.1795 17.2415 72.3841 16.7983C72.5886 16.3523 72.6909 15.7955 72.6909 15.1278C72.6909 14.4602 72.5886 13.9062 72.3841 13.4659C72.1795 13.0227 71.877 12.6918 71.4764 12.473C71.0787 12.2514 70.5843 12.1406 69.9934 12.1406H68.6468V18.1321ZM78.3081 19.6278C77.6689 19.6278 77.1149 19.4872 76.6462 19.206C76.1774 18.9247 75.8138 18.5312 75.5553 18.0256C75.2996 17.5199 75.1718 16.929 75.1718 16.2528C75.1718 15.5767 75.2996 14.9844 75.5553 14.4759C75.8138 13.9673 76.1774 13.5724 76.6462 13.2912C77.1149 13.0099 77.6689 12.8693 78.3081 12.8693C78.9473 12.8693 79.5013 13.0099 79.97 13.2912C80.4388 13.5724 80.801 13.9673 81.0567 14.4759C81.3152 14.9844 81.4445 15.5767 81.4445 16.2528C81.4445 16.929 81.3152 17.5199 81.0567 18.0256C80.801 18.5312 80.4388 18.9247 79.97 19.206C79.5013 19.4872 78.9473 19.6278 78.3081 19.6278ZM78.3166 18.392C78.6632 18.392 78.953 18.2969 79.186 18.1065C79.4189 17.9134 79.5922 17.6548 79.7058 17.331C79.8223 17.0071 79.8806 16.6463 79.8806 16.2486C79.8806 15.848 79.8223 15.4858 79.7058 15.1619C79.5922 14.8352 79.4189 14.5753 79.186 14.3821C78.953 14.1889 78.6632 14.0923 78.3166 14.0923C77.9615 14.0923 77.6661 14.1889 77.4303 14.3821C77.1973 14.5753 77.0226 14.8352 76.9061 15.1619C76.7925 15.4858 76.7357 15.848 76.7357 16.2486C76.7357 16.6463 76.7925 17.0071 76.9061 17.331C77.0226 17.6548 77.1973 17.9134 77.4303 18.1065C77.6661 18.2969 77.9615 18.392 78.3166 18.392ZM83.6771 19.5L81.8277 12.9545H83.4001L84.5507 17.5568H84.6104L85.7865 12.9545H87.3419L88.518 17.5312H88.582L89.7155 12.9545H91.2922L89.4385 19.5H87.832L86.6047 15.0767H86.5152L85.2879 19.5H83.6771ZM93.6719 15.6648V19.5H92.1293V12.9545H93.6037V14.0668H93.6804C93.831 13.7003 94.071 13.4091 94.4006 13.1932C94.7329 12.9773 95.1435 12.8693 95.6321 12.8693C96.0838 12.8693 96.4773 12.9659 96.8125 13.1591C97.1506 13.3523 97.4119 13.6321 97.5966 13.9986C97.7841 14.3651 97.8764 14.8097 97.8736 15.3324V19.5H96.331V15.571C96.331 15.1335 96.2173 14.7912 95.9901 14.544C95.7656 14.2969 95.4545 14.1733 95.0568 14.1733C94.7869 14.1733 94.5469 14.233 94.3366 14.3523C94.1293 14.4687 93.9659 14.6378 93.8466 14.8594C93.7301 15.081 93.6719 15.3494 93.6719 15.6648ZM100.744 10.7727V19.5H99.2018V10.7727H100.744ZM104.946 19.6278C104.307 19.6278 103.753 19.4872 103.284 19.206C102.815 18.9247 102.451 18.5312 102.193 18.0256C101.937 17.5199 101.809 16.929 101.809 16.2528C101.809 15.5767 101.937 14.9844 102.193 14.4759C102.451 13.9673 102.815 13.5724 103.284 13.2912C103.753 13.0099 104.307 12.8693 104.946 12.8693C105.585 12.8693 106.139 13.0099 106.608 13.2912C107.076 13.5724 107.439 13.9673 107.694 14.4759C107.953 14.9844 108.082 15.5767 108.082 16.2528C108.082 16.929 107.953 17.5199 107.694 18.0256C107.439 18.5312 107.076 18.9247 106.608 19.206C106.139 19.4872 105.585 19.6278 104.946 19.6278ZM104.954 18.392C105.301 18.392 105.591 18.2969 105.824 18.1065C106.057 17.9134 106.23 17.6548 106.344 17.331C106.46 17.0071 106.518 16.6463 106.518 16.2486C106.518 15.848 106.46 15.4858 106.344 15.1619C106.23 14.8352 106.057 14.5753 105.824 14.3821C105.591 14.1889 105.301 14.0923 104.954 14.0923C104.599 14.0923 104.304 14.1889 104.068 14.3821C103.835 14.5753 103.66 14.8352 103.544 15.1619C103.43 15.4858 103.373 15.848 103.373 16.2486C103.373 16.6463 103.43 17.0071 103.544 17.331C103.66 17.6548 103.835 17.9134 104.068 18.1065C104.304 18.2969 104.599 18.392 104.954 18.392ZM111.035 19.6321C110.62 19.6321 110.247 19.5582 109.914 19.4105C109.585 19.2599 109.323 19.0384 109.13 18.7457C108.94 18.4531 108.845 18.0923 108.845 17.6634C108.845 17.294 108.913 16.9886 109.049 16.7472C109.186 16.5057 109.372 16.3125 109.607 16.1676C109.843 16.0227 110.109 15.9134 110.404 15.8395C110.703 15.7628 111.011 15.7074 111.329 15.6733C111.713 15.6335 112.024 15.598 112.262 15.5668C112.501 15.5327 112.674 15.4815 112.782 15.4134C112.893 15.3423 112.948 15.233 112.948 15.0852V15.0597C112.948 14.7386 112.853 14.4901 112.663 14.3139C112.472 14.1378 112.198 14.0497 111.84 14.0497C111.463 14.0497 111.163 14.1321 110.941 14.2969C110.722 14.4616 110.575 14.6562 110.498 14.8807L109.058 14.6761C109.171 14.2784 109.359 13.946 109.62 13.679C109.882 13.4091 110.201 13.2074 110.579 13.0739C110.957 12.9375 111.374 12.8693 111.832 12.8693C112.147 12.8693 112.461 12.9062 112.774 12.9801C113.086 13.054 113.372 13.1761 113.63 13.3466C113.889 13.5142 114.096 13.7429 114.252 14.0327C114.411 14.3224 114.491 14.6847 114.491 15.1193V19.5H113.008V18.6009H112.957C112.863 18.7827 112.731 18.9531 112.561 19.1122C112.393 19.2685 112.181 19.3949 111.926 19.4915C111.673 19.5852 111.376 19.6321 111.035 19.6321ZM111.436 18.4986C111.745 18.4986 112.014 18.4375 112.241 18.3153C112.468 18.1903 112.643 18.0256 112.765 17.821C112.89 17.6165 112.953 17.3935 112.953 17.152V16.3807C112.904 16.4205 112.822 16.4574 112.705 16.4915C112.592 16.5256 112.464 16.5554 112.322 16.581C112.18 16.6065 112.039 16.6293 111.9 16.6491C111.761 16.669 111.64 16.6861 111.538 16.7003C111.308 16.7315 111.102 16.7827 110.92 16.8537C110.738 16.9247 110.595 17.0241 110.49 17.152C110.384 17.277 110.332 17.4389 110.332 17.6378C110.332 17.9219 110.436 18.1364 110.643 18.2812C110.85 18.4261 111.115 18.4986 111.436 18.4986ZM118.231 19.6151C117.717 19.6151 117.257 19.483 116.85 19.2188C116.444 18.9545 116.123 18.571 115.887 18.0682C115.651 17.5653 115.534 16.9545 115.534 16.2358C115.534 15.5085 115.653 14.8949 115.892 14.3949C116.133 13.892 116.458 13.5128 116.867 13.2571C117.276 12.9986 117.732 12.8693 118.235 12.8693C118.619 12.8693 118.934 12.9347 119.181 13.0653C119.428 13.1932 119.625 13.348 119.769 13.5298C119.914 13.7088 120.026 13.8778 120.106 14.0369H120.17V10.7727H121.717V19.5H120.2V18.4688H120.106C120.026 18.6278 119.911 18.7969 119.761 18.9759C119.61 19.152 119.411 19.3026 119.164 19.4276C118.917 19.5526 118.606 19.6151 118.231 19.6151ZM118.661 18.3494C118.988 18.3494 119.267 18.2614 119.497 18.0852C119.727 17.9062 119.901 17.6577 120.021 17.3395C120.14 17.0213 120.2 16.6506 120.2 16.2273C120.2 15.804 120.14 15.4361 120.021 15.1236C119.904 14.8111 119.731 14.5682 119.501 14.3949C119.274 14.2216 118.994 14.1349 118.661 14.1349C118.318 14.1349 118.031 14.2244 117.801 14.4034C117.571 14.5824 117.397 14.8295 117.281 15.1449C117.164 15.4602 117.106 15.821 117.106 16.2273C117.106 16.6364 117.164 17.0014 117.281 17.3224C117.4 17.6406 117.575 17.892 117.805 18.0767C118.038 18.2585 118.323 18.3494 118.661 18.3494ZM128.712 19.6278C128.073 19.6278 127.519 19.4872 127.05 19.206C126.582 18.9247 126.218 18.5312 125.959 18.0256C125.704 17.5199 125.576 16.929 125.576 16.2528C125.576 15.5767 125.704 14.9844 125.959 14.4759C126.218 13.9673 126.582 13.5724 127.05 13.2912C127.519 13.0099 128.073 12.8693 128.712 12.8693C129.352 12.8693 129.906 13.0099 130.374 13.2912C130.843 13.5724 131.205 13.9673 131.461 14.4759C131.719 14.9844 131.849 15.5767 131.849 16.2528C131.849 16.929 131.719 17.5199 131.461 18.0256C131.205 18.5312 130.843 18.9247 130.374 19.206C129.906 19.4872 129.352 19.6278 128.712 19.6278ZM128.721 18.392C129.067 18.392 129.357 18.2969 129.59 18.1065C129.823 17.9134 129.996 17.6548 130.11 17.331C130.227 17.0071 130.285 16.6463 130.285 16.2486C130.285 15.848 130.227 15.4858 130.11 15.1619C129.996 14.8352 129.823 14.5753 129.59 14.3821C129.357 14.1889 129.067 14.0923 128.721 14.0923C128.366 14.0923 128.07 14.1889 127.834 14.3821C127.602 14.5753 127.427 14.8352 127.31 15.1619C127.197 15.4858 127.14 15.848 127.14 16.2486C127.14 16.6463 127.197 17.0071 127.31 17.331C127.427 17.6548 127.602 17.9134 127.834 18.1065C128.07 18.2969 128.366 18.392 128.721 18.392ZM134.461 15.6648V19.5H132.918V12.9545H134.392V14.0668H134.469C134.62 13.7003 134.86 13.4091 135.189 13.1932C135.522 12.9773 135.932 12.8693 136.421 12.8693C136.873 12.8693 137.266 12.9659 137.601 13.1591C137.939 13.3523 138.201 13.6321 138.385 13.9986C138.573 14.3651 138.665 14.8097 138.662 15.3324V19.5H137.12V15.571C137.12 15.1335 137.006 14.7912 136.779 14.544C136.554 14.2969 136.243 14.1733 135.846 14.1733C135.576 14.1733 135.336 14.233 135.125 14.3523C134.918 14.4687 134.755 14.6378 134.635 14.8594C134.519 15.081 134.461 15.3494 134.461 15.6648ZM145.996 12.9545V14.1477H142.233V12.9545H145.996ZM143.162 11.3864H144.704V17.5312C144.704 17.7386 144.736 17.8977 144.798 18.0085C144.863 18.1165 144.949 18.1903 145.054 18.2301C145.159 18.2699 145.275 18.2898 145.403 18.2898C145.5 18.2898 145.588 18.2827 145.667 18.2685C145.75 18.2543 145.812 18.2415 145.855 18.2301L146.115 19.4361C146.032 19.4645 145.915 19.4957 145.761 19.5298C145.611 19.5639 145.426 19.5838 145.207 19.5895C144.821 19.6009 144.473 19.5426 144.163 19.4148C143.853 19.2841 143.608 19.0824 143.426 18.8097C143.247 18.5369 143.159 18.196 143.162 17.7869V11.3864ZM148.729 15.6648V19.5H147.186V10.7727H148.695V14.0668H148.772C148.925 13.6974 149.162 13.4062 149.483 13.1932C149.807 12.9773 150.219 12.8693 150.719 12.8693C151.173 12.8693 151.57 12.9645 151.908 13.1548C152.246 13.3452 152.507 13.6236 152.692 13.9901C152.879 14.3565 152.973 14.804 152.973 15.3324V19.5H151.431V15.571C151.431 15.1307 151.317 14.7884 151.09 14.544C150.865 14.2969 150.55 14.1733 150.144 14.1733C149.871 14.1733 149.627 14.233 149.411 14.3523C149.198 14.4687 149.03 14.6378 148.908 14.8594C148.789 15.081 148.729 15.3494 148.729 15.6648ZM157.203 19.6278C156.547 19.6278 155.98 19.4915 155.503 19.2188C155.029 18.9432 154.664 18.554 154.408 18.0511C154.152 17.5455 154.024 16.9503 154.024 16.2656C154.024 15.5923 154.152 15.0014 154.408 14.4929C154.666 13.9815 155.027 13.5838 155.49 13.2997C155.953 13.0128 156.497 12.8693 157.122 12.8693C157.526 12.8693 157.907 12.9347 158.264 13.0653C158.625 13.1932 158.943 13.392 159.219 13.6619C159.497 13.9318 159.716 14.2756 159.875 14.6932C160.034 15.108 160.114 15.6023 160.114 16.1761V16.6491H154.749V15.6094H158.635C158.632 15.3139 158.568 15.0511 158.443 14.821C158.318 14.5881 158.144 14.4048 157.919 14.2713C157.698 14.1378 157.439 14.071 157.144 14.071C156.828 14.071 156.551 14.1477 156.313 14.3011C156.074 14.4517 155.888 14.6506 155.755 14.8977C155.624 15.142 155.557 15.4105 155.554 15.7031V16.6108C155.554 16.9915 155.624 17.3182 155.763 17.5909C155.902 17.8608 156.097 18.0682 156.347 18.2131C156.597 18.3551 156.889 18.4261 157.225 18.4261C157.449 18.4261 157.652 18.3949 157.834 18.3324C158.016 18.267 158.174 18.1719 158.307 18.0469C158.441 17.9219 158.541 17.767 158.61 17.5824L160.05 17.7443C159.959 18.125 159.786 18.4574 159.53 18.7415C159.277 19.0227 158.953 19.2415 158.559 19.3977C158.164 19.5511 157.712 19.6278 157.203 19.6278Z" fill="white"/>
<path d="M69.8379 41.5H66.7441L72.377 25.5H75.9551L81.5957 41.5H78.502L74.2285 28.7812H74.1035L69.8379 41.5ZM69.9395 35.2266H78.377V37.5547H69.9395V35.2266ZM83.1381 46V29.5H85.9194V31.4844H86.0834C86.2293 31.1927 86.435 30.8828 86.7006 30.5547C86.9663 30.2214 87.3256 29.9375 87.7788 29.7031C88.2319 29.4635 88.81 29.3438 89.5131 29.3438C90.4402 29.3438 91.2761 29.5807 92.0209 30.0547C92.7709 30.5234 93.3647 31.2187 93.8022 32.1406C94.2449 33.0573 94.4663 34.1823 94.4663 35.5156C94.4663 36.8333 94.2501 37.9531 93.8178 38.875C93.3855 39.7969 92.797 40.5 92.0522 40.9844C91.3074 41.4688 90.4636 41.7109 89.5209 41.7109C88.8334 41.7109 88.2631 41.5964 87.81 41.3672C87.3569 41.138 86.9923 40.862 86.7163 40.5391C86.4454 40.2109 86.2345 39.901 86.0834 39.6094H85.9663V46H83.1381ZM85.9116 35.5C85.9116 36.276 86.0209 36.9557 86.2397 37.5391C86.4636 38.1224 86.784 38.5781 87.2006 38.9062C87.6225 39.2292 88.1329 39.3906 88.7319 39.3906C89.3569 39.3906 89.8803 39.224 90.3022 38.8906C90.7241 38.5521 91.0418 38.0911 91.2553 37.5078C91.4741 36.9193 91.5834 36.25 91.5834 35.5C91.5834 34.7552 91.4767 34.0937 91.2631 33.5156C91.0496 32.9375 90.7319 32.4844 90.31 32.1562C89.8881 31.8281 89.3621 31.6641 88.7319 31.6641C88.1277 31.6641 87.6147 31.8229 87.1928 32.1406C86.7709 32.4583 86.4506 32.9036 86.2319 33.4766C86.0183 34.0495 85.9116 34.724 85.9116 35.5ZM96.4481 46V29.5H99.2294V31.4844H99.3934C99.5393 31.1927 99.745 30.8828 100.011 30.5547C100.276 30.2214 100.636 29.9375 101.089 29.7031C101.542 29.4635 102.12 29.3438 102.823 29.3438C103.75 29.3438 104.586 29.5807 105.331 30.0547C106.081 30.5234 106.675 31.2187 107.112 32.1406C107.555 33.0573 107.776 34.1823 107.776 35.5156C107.776 36.8333 107.56 37.9531 107.128 38.875C106.696 39.7969 106.107 40.5 105.362 40.9844C104.617 41.4688 103.774 41.7109 102.831 41.7109C102.143 41.7109 101.573 41.5964 101.12 41.3672C100.667 41.138 100.302 40.862 100.026 40.5391C99.7554 40.2109 99.5445 39.901 99.3934 39.6094H99.2763V46H96.4481ZM99.2216 35.5C99.2216 36.276 99.3309 36.9557 99.5497 37.5391C99.7736 38.1224 100.094 38.5781 100.511 38.9062C100.933 39.2292 101.443 39.3906 102.042 39.3906C102.667 39.3906 103.19 39.224 103.612 38.8906C104.034 38.5521 104.352 38.0911 104.565 37.5078C104.784 36.9193 104.893 36.25 104.893 35.5C104.893 34.7552 104.787 34.0937 104.573 33.5156C104.36 32.9375 104.042 32.4844 103.62 32.1562C103.198 31.8281 102.672 31.6641 102.042 31.6641C101.438 31.6641 100.925 31.8229 100.503 32.1406C100.081 32.4583 99.7606 32.9036 99.5419 33.4766C99.3283 34.0495 99.2216 34.724 99.2216 35.5ZM123.595 29.8984C123.523 29.2161 123.215 28.6849 122.674 28.3047C122.137 27.9245 121.439 27.7344 120.58 27.7344C119.976 27.7344 119.457 27.8255 119.025 28.0078C118.593 28.1901 118.262 28.4375 118.033 28.75C117.804 29.0625 117.687 29.4193 117.681 29.8203C117.681 30.1536 117.757 30.4427 117.908 30.6875C118.064 30.9323 118.275 31.1406 118.541 31.3125C118.806 31.4792 119.101 31.6198 119.424 31.7344C119.747 31.849 120.072 31.9453 120.4 32.0234L121.9 32.3984C122.504 32.5391 123.085 32.7292 123.642 32.9687C124.205 33.2083 124.707 33.5104 125.15 33.875C125.598 34.2396 125.952 34.6797 126.213 35.1953C126.473 35.7109 126.603 36.3151 126.603 37.0078C126.603 37.9453 126.364 38.7708 125.885 39.4844C125.405 40.1927 124.713 40.7474 123.806 41.1484C122.905 41.5443 121.814 41.7422 120.533 41.7422C119.288 41.7422 118.207 41.5495 117.291 41.1641C116.379 40.7786 115.666 40.2161 115.15 39.4766C114.64 38.737 114.364 37.8359 114.322 36.7734H117.174C117.215 37.3307 117.387 37.7943 117.689 38.1641C117.991 38.5339 118.385 38.8099 118.869 38.9922C119.358 39.1745 119.905 39.2656 120.51 39.2656C121.14 39.2656 121.692 39.1719 122.166 38.9844C122.645 38.7917 123.02 38.526 123.291 38.1875C123.562 37.8437 123.7 37.4427 123.705 36.9844C123.7 36.5677 123.577 36.224 123.338 35.9531C123.098 35.6771 122.762 35.4479 122.33 35.2656C121.903 35.0781 121.403 34.9115 120.83 34.7656L119.01 34.2969C117.692 33.9583 116.65 33.4453 115.885 32.7578C115.124 32.0651 114.744 31.1458 114.744 30C114.744 29.0573 114.999 28.2318 115.51 27.5234C116.025 26.8151 116.726 26.2656 117.611 25.875C118.497 25.4792 119.499 25.2812 120.619 25.2812C121.754 25.2812 122.749 25.4792 123.603 25.875C124.463 26.2656 125.137 26.8099 125.627 27.5078C126.116 28.2005 126.369 28.9974 126.385 29.8984H123.595ZM134.614 29.5V31.6875H127.716V29.5H134.614ZM129.419 26.625H132.247V37.8906C132.247 38.2708 132.305 38.5625 132.419 38.7656C132.539 38.9635 132.695 39.099 132.888 39.1719C133.081 39.2448 133.294 39.2812 133.529 39.2812C133.706 39.2812 133.867 39.2682 134.013 39.2422C134.164 39.2161 134.279 39.1927 134.357 39.1719L134.833 41.3828C134.682 41.4349 134.466 41.4922 134.185 41.5547C133.909 41.6172 133.57 41.6536 133.169 41.6641C132.461 41.6849 131.823 41.5781 131.255 41.3437C130.687 41.1042 130.237 40.7344 129.904 40.2344C129.575 39.7344 129.414 39.1094 129.419 38.3594V26.625ZM141.645 41.7344C140.473 41.7344 139.458 41.4766 138.598 40.9609C137.739 40.4453 137.072 39.724 136.598 38.7969C136.13 37.8698 135.895 36.7865 135.895 35.5469C135.895 34.3073 136.13 33.2214 136.598 32.2891C137.072 31.3568 137.739 30.6328 138.598 30.1172C139.458 29.6016 140.473 29.3438 141.645 29.3438C142.817 29.3438 143.833 29.6016 144.692 30.1172C145.551 30.6328 146.215 31.3568 146.684 32.2891C147.158 33.2214 147.395 34.3073 147.395 35.5469C147.395 36.7865 147.158 37.8698 146.684 38.7969C146.215 39.724 145.551 40.4453 144.692 40.9609C143.833 41.4766 142.817 41.7344 141.645 41.7344ZM141.661 39.4687C142.296 39.4687 142.827 39.2943 143.255 38.9453C143.682 38.5911 143.999 38.1172 144.208 37.5234C144.421 36.9297 144.528 36.2682 144.528 35.5391C144.528 34.8047 144.421 34.1406 144.208 33.5469C143.999 32.9479 143.682 32.4714 143.255 32.1172C142.827 31.763 142.296 31.5859 141.661 31.5859C141.01 31.5859 140.468 31.763 140.036 32.1172C139.609 32.4714 139.288 32.9479 139.075 33.5469C138.867 34.1406 138.762 34.8047 138.762 35.5391C138.762 36.2682 138.867 36.9297 139.075 37.5234C139.288 38.1172 139.609 38.5911 140.036 38.9453C140.468 39.2943 141.01 39.4687 141.661 39.4687ZM149.356 41.5V29.5H152.098V31.5H152.223C152.441 30.8073 152.816 30.2734 153.348 29.8984C153.884 29.5182 154.496 29.3281 155.184 29.3281C155.34 29.3281 155.514 29.3359 155.707 29.3516C155.905 29.362 156.069 29.3802 156.199 29.4062V32.0078C156.08 31.9661 155.889 31.9297 155.629 31.8984C155.374 31.862 155.126 31.8437 154.887 31.8437C154.371 31.8437 153.908 31.9557 153.496 32.1797C153.09 32.3984 152.77 32.7031 152.535 33.0937C152.301 33.4844 152.184 33.9349 152.184 34.4453V41.5H149.356ZM162.457 41.7344C161.253 41.7344 160.214 41.4844 159.339 40.9844C158.47 40.4792 157.8 39.7656 157.332 38.8437C156.863 37.9167 156.628 36.8255 156.628 35.5703C156.628 34.3359 156.863 33.2526 157.332 32.3203C157.806 31.3828 158.467 30.6536 159.316 30.1328C160.165 29.6068 161.162 29.3438 162.308 29.3438C163.048 29.3438 163.746 29.4635 164.402 29.7031C165.063 29.9375 165.647 30.3021 166.152 30.7969C166.662 31.2917 167.063 31.9219 167.355 32.6875C167.647 33.4479 167.793 34.3542 167.793 35.4062V36.2734H157.957V34.3672H165.082C165.076 33.8255 164.959 33.3437 164.73 32.9219C164.501 32.4948 164.181 32.1589 163.769 31.9141C163.363 31.6693 162.889 31.5469 162.347 31.5469C161.769 31.5469 161.261 31.6875 160.824 31.9687C160.386 32.2448 160.045 32.6094 159.8 33.0625C159.561 33.5104 159.438 34.0026 159.433 34.5391V36.2031C159.433 36.901 159.561 37.5 159.816 38C160.071 38.4948 160.428 38.875 160.886 39.1406C161.345 39.401 161.881 39.5312 162.496 39.5312C162.907 39.5312 163.279 39.474 163.613 39.3594C163.946 39.2396 164.235 39.0651 164.48 38.8359C164.725 38.6068 164.91 38.3229 165.035 37.9844L167.675 38.2812C167.509 38.9792 167.191 39.5885 166.722 40.1094C166.259 40.625 165.665 41.026 164.941 41.3125C164.217 41.5937 163.389 41.7344 162.457 41.7344Z" fill="white"/>
</svg>
