<svg width="201" height="200" viewBox="0 0 201 200" fill="none" xmlns="http://www.w3.org/2000/svg">
<path d="M200.5 175.757H0.5V175.891H200.5V175.757Z" fill="#EBEBEB"/>
<path d="M180.46 184.395H167.212V184.529H180.46V184.395Z" fill="#EBEBEB"/>
<path d="M121.076 184.464H117.6V184.598H121.076V184.464Z" fill="#EBEBEB"/>
<path d="M166.808 179.412H142.232V179.546H166.808V179.412Z" fill="#EBEBEB"/>
<path d="M90.556 182.58H85.48V182.714H90.556V182.58Z" fill="#EBEBEB"/>
<path d="M81.92 182.58H67.188V182.714H81.92V182.58Z" fill="#EBEBEB"/>
<path d="M31.6559 180.314H21.4839V180.449H31.6559V180.314Z" fill="#EBEBEB"/>
<path d="M64.0122 180.314H34.0562V180.449H64.0122V180.314Z" fill="#EBEBEB"/>
<path d="M95.2999 151.814H18.0639C17.4589 151.813 16.879 151.489 16.4515 150.915C16.024 150.34 15.7839 149.561 15.7839 148.749V3.03844C15.7892 2.23106 16.0316 1.45908 16.4585 0.890175C16.8854 0.321268 17.4623 0.00138307 18.0639 0H95.2999C95.9057 0 96.4866 0.322948 96.915 0.897799C97.3433 1.47265 97.5839 2.25232 97.5839 3.06528V148.749C97.5839 149.562 97.3433 150.342 96.915 150.917C96.4866 151.492 95.9057 151.814 95.2999 151.814ZM18.0639 0.107366C17.4854 0.108788 16.9309 0.418223 16.5222 0.967751C16.1135 1.51728 15.8839 2.262 15.8839 3.03844V148.749C15.8839 149.526 16.1135 150.27 16.5222 150.82C16.9309 151.369 17.4854 151.679 18.0639 151.68H95.2999C95.8788 151.679 96.4337 151.37 96.8431 150.82C97.2524 150.271 97.4829 149.526 97.4839 148.749V3.03844C97.4829 2.2615 97.2524 1.5168 96.8431 0.967423C96.4337 0.418048 95.8788 0.108785 95.2999 0.107366H18.0639Z" fill="#EBEBEB"/>
<path d="M181.824 151.814H104.584C103.978 151.813 103.398 151.49 102.97 150.915C102.542 150.341 102.301 149.562 102.3 148.749V3.03844C102.306 2.23057 102.549 1.4586 102.977 0.889839C103.404 0.32108 103.982 0.00136799 104.584 0H181.824C182.425 0.00279391 183.001 0.323303 183.427 0.892059C183.853 1.46082 184.095 2.23199 184.1 3.03844V148.749C184.1 149.56 183.86 150.338 183.434 150.913C183.007 151.487 182.428 151.812 181.824 151.814ZM104.584 0.107366C104.005 0.108785 103.45 0.418048 103.041 0.967423C102.631 1.5168 102.401 2.2615 102.4 3.03844V148.749C102.401 149.526 102.631 150.271 103.041 150.82C103.45 151.37 104.005 151.679 104.584 151.68H181.824C182.403 151.679 182.958 151.37 183.367 150.82C183.776 150.271 184.007 149.526 184.008 148.749V3.03844C184.007 2.2615 183.776 1.5168 183.367 0.967423C182.958 0.418048 182.403 0.108785 181.824 0.107366H104.584Z" fill="#EBEBEB"/>
<path d="M76.8118 104.418L174.028 104.418V9.11518L76.8118 9.11518L76.8118 104.418Z" fill="#E6E6E6"/>
<path d="M72.516 104.418L173.032 104.418V9.11518L72.516 9.11518L72.516 104.418Z" fill="#F0F0F0"/>
<path d="M167.012 96.3435V17.1885L78.5277 17.1885V96.3435L167.012 96.3435Z" fill="#FAFAFA"/>
<path d="M145.504 96.3381L125.36 17.1885H106.124L126.268 96.3381H145.504Z" fill="white"/>
<path d="M122.136 96.3381L101.992 17.1885H94.4958L114.64 96.3381H122.136Z" fill="white"/>
<path d="M79.2961 96.3435V17.1885H78.5321V96.3435H79.2961Z" fill="#E6E6E6"/>
<path d="M26.328 78.4951H60.656L60.656 13.1795H26.328L26.328 78.4951Z" fill="#E0E0E0"/>
<path d="M23.9002 78.4951H59.2842L59.2842 13.1795H23.9002L23.9002 78.4951Z" fill="#F5F5F5"/>
<path d="M55.792 73.3416V18.3223L27.392 18.3223L27.392 73.3416H55.792Z" fill="white"/>
<path d="M39.6719 124.221C42.2199 115.783 48.28 112.642 50.376 107.311C53.116 100.333 53.1 89.8592 50.776 86.0853C48.744 82.7999 42.0239 105.003 41.2679 107.483C39.1939 114.177 37.8961 121.257 37.42 128.478C37.476 123.266 37.5279 118.477 37.5719 114.784C37.7159 102.738 37.8919 98.8618 37.9719 97.67C38.2519 97.0849 38.5839 96.4085 38.7719 96.0595C40.4 92.9835 44.0079 89.317 45.8119 84.8452C48.4439 78.312 48.02 70.4958 46.1719 67.5863C44.24 64.5424 40.8279 71.7359 39.0159 78.8596C37.2039 85.9833 37.9759 92.8171 37.4679 98.7222C37.3639 99.8817 37.2519 104.289 37.1519 110.409C36.5999 103.827 35.504 99.42 33.4759 95.308C30.9799 90.2564 28.8239 84.1044 26.7679 84.8989C24.7119 85.6934 25.8159 93.8371 27.4439 99.5489C28.8999 104.638 36.04 109.716 37.092 113.807C36.968 122.096 36.8559 132.596 36.7799 142.382C36.2159 137.331 36.604 136.907 34.292 129.171C32.92 124.576 27.2999 118.907 26.6199 122.063C25.9399 125.22 26.9679 131.189 29.0919 135.377C30.808 138.748 34.6119 138.743 35.492 140.836C35.696 141.325 36.376 143.198 36.764 144.272C36.672 156.211 36.632 166.754 36.676 170.346L37.0439 170.383C37.0439 169.454 37.0719 163.404 37.1439 155.352C38.0679 151.057 44.2879 148.583 46.2079 144.132C48.2079 139.478 49.6639 134.045 48.7999 130.411C48.08 127.378 42.4 131.485 40.1159 136.525C38.584 139.875 37.6479 143.445 37.2119 148.244C37.2639 142.769 37.3239 136.885 37.3799 131.334C37.8479 129.939 38.8999 126.75 39.6719 124.221Z" fill="#E6E6E6"/>
<path d="M43.324 175.757H30.252C29.9065 175.756 29.5718 175.596 29.3043 175.302C29.0368 175.009 28.853 174.6 28.784 174.146L27.856 168.026H45.724L44.796 174.162C44.7229 174.614 44.5371 175.018 44.2694 175.308C44.0016 175.598 43.668 175.756 43.324 175.757Z" fill="#F0F0F0"/>
<path d="M46.0999 170.383H27.4799C27.2642 170.382 27.0563 170.275 26.8955 170.082C26.7347 169.889 26.6324 169.624 26.6079 169.336L26.2079 164.8C26.1944 164.635 26.2069 164.469 26.2446 164.311C26.2822 164.153 26.3442 164.008 26.4264 163.884C26.5086 163.761 26.6093 163.662 26.7219 163.594C26.8345 163.526 26.9565 163.491 27.0799 163.49H46.4559C46.5795 163.49 46.7018 163.525 46.8147 163.592C46.9276 163.66 47.0285 163.759 47.1109 163.883C47.1932 164.006 47.2552 164.152 47.2926 164.31C47.33 164.468 47.342 164.635 47.3279 164.8L46.9279 169.336C46.9045 169.614 46.8085 169.872 46.6569 170.063C46.5052 170.255 46.3079 170.368 46.0999 170.383Z" fill="#F0F0F0"/>
<path d="M162.752 171.844H166.748V114.14H162.752V171.844Z" fill="#F0F0F0"/>
<path d="M81.3241 175.688H165.216V171.844H81.3241V175.688Z" fill="#F0F0F0"/>
<path d="M162.756 114.14H79.792V171.843H162.756V114.14Z" fill="#F5F5F5"/>
<path d="M163.696 114.14H167.824V110.5H163.696V114.14Z" fill="#E0E0E0"/>
<path d="M163.696 110.5H78.7158V114.14H163.696V110.5Z" fill="#EBEBEB"/>
<path d="M156.8 139.039H85.7439C84.8953 139.039 84.0813 138.586 83.4812 137.781C82.8811 136.976 82.5439 135.883 82.5439 134.744V122.397C82.5439 121.258 82.8811 120.166 83.4812 119.36C84.0813 118.555 84.8953 118.103 85.7439 118.103H156.8C157.649 118.103 158.463 118.555 159.063 119.36C159.663 120.166 160 121.258 160 122.397V134.744C160 135.883 159.663 136.976 159.063 137.781C158.463 138.586 157.649 139.039 156.8 139.039ZM85.7439 119.176C85.1074 119.176 84.497 119.516 84.0469 120.12C83.5968 120.724 83.3439 121.543 83.3439 122.397V134.744C83.3439 135.598 83.5968 136.418 84.0469 137.022C84.497 137.626 85.1074 137.965 85.7439 137.965H156.8C157.436 137.965 158.047 137.626 158.497 137.022C158.947 136.418 159.2 135.598 159.2 134.744V122.397C159.2 121.543 158.947 120.724 158.497 120.12C158.047 119.516 157.436 119.176 156.8 119.176H85.7439Z" fill="white"/>
<path d="M156.8 164.908H85.7439C84.8953 164.908 84.0813 164.455 83.4812 163.65C82.8811 162.845 82.5439 161.752 82.5439 160.613V148.266C82.5439 147.127 82.8811 146.035 83.4812 145.23C84.0813 144.424 84.8953 143.972 85.7439 143.972H156.8C157.649 143.972 158.463 144.424 159.063 145.23C159.663 146.035 160 147.127 160 148.266V160.613C160 161.752 159.663 162.845 159.063 163.65C158.463 164.455 157.649 164.908 156.8 164.908ZM85.7439 145.002C85.1074 145.002 84.497 145.342 84.0469 145.946C83.5968 146.55 83.3439 147.369 83.3439 148.223V160.57C83.3439 161.425 83.5968 162.244 84.0469 162.848C84.497 163.452 85.1074 163.791 85.7439 163.791H156.8C157.436 163.791 158.047 163.452 158.497 162.848C158.947 162.244 159.2 161.425 159.2 160.57V148.223C159.2 147.369 158.947 146.55 158.497 145.946C158.047 145.342 157.436 145.002 156.8 145.002H85.7439Z" fill="white"/>
<path d="M140.652 130.449H101.892C101.617 130.449 101.353 130.303 101.158 130.042C100.963 129.782 100.853 129.428 100.852 129.059V128.039C100.853 127.67 100.963 127.316 101.158 127.055C101.353 126.795 101.617 126.648 101.892 126.648H140.652C140.927 126.648 141.191 126.795 141.386 127.055C141.581 127.316 141.691 127.67 141.692 128.039V129.059C141.691 129.428 141.581 129.782 141.386 130.042C141.191 130.303 140.927 130.449 140.652 130.449ZM101.892 127.765C101.829 127.766 101.77 127.8 101.725 127.859C101.68 127.918 101.654 127.998 101.652 128.082V129.102C101.654 129.186 101.68 129.266 101.725 129.325C101.77 129.383 101.829 129.417 101.892 129.418H140.652C140.715 129.418 140.775 129.385 140.82 129.326C140.865 129.267 140.891 129.186 140.892 129.102V128.082C140.891 127.997 140.865 127.917 140.82 127.857C140.775 127.798 140.715 127.765 140.652 127.765H101.892Z" fill="white"/>
<path d="M140.652 156.318H101.892C101.617 156.318 101.353 156.172 101.158 155.911C100.963 155.651 100.853 155.297 100.852 154.928V153.908C100.853 153.539 100.963 153.185 101.158 152.924C101.353 152.664 101.617 152.518 101.892 152.518H140.652C140.927 152.518 141.191 152.664 141.386 152.924C141.581 153.185 141.691 153.539 141.692 153.908V154.928C141.691 155.297 141.581 155.651 141.386 155.911C141.191 156.172 140.927 156.318 140.652 156.318ZM101.892 153.591C101.829 153.593 101.77 153.626 101.725 153.685C101.68 153.744 101.654 153.824 101.652 153.908V154.928C101.654 155.012 101.68 155.092 101.725 155.151C101.77 155.21 101.829 155.243 101.892 155.245H140.652C140.715 155.245 140.775 155.211 140.82 155.152C140.865 155.093 140.891 155.012 140.892 154.928V153.908C140.891 153.823 140.865 153.743 140.82 153.684C140.775 153.624 140.715 153.591 140.652 153.591H101.892Z" fill="white"/>
<path d="M98.4998 200C141.333 200 176.056 197.28 176.056 193.924C176.056 190.567 141.333 187.847 98.4998 187.847C55.6669 187.847 20.9438 190.567 20.9438 193.924C20.9438 197.28 55.6669 200 98.4998 200Z" fill="#F5F5F5"/>
<path d="M150.416 60.5288L150.264 63.6895L150.663 63.7241L150.815 60.5634L150.416 60.5288Z" fill="#407BFF"/>
<path d="M151.023 47.6916L150.524 58.0791L150.923 58.1137L151.422 47.7262L151.023 47.6916Z" fill="#407BFF"/>
<path d="M146.276 32.6068H99.256C98.0486 32.6352 96.8924 33.2663 96.0131 34.377C95.1337 35.4877 94.5943 36.9982 94.5 38.6139L88.424 164.5C88.3796 165.271 88.4552 166.047 88.6461 166.777C88.837 167.507 89.1389 168.177 89.5327 168.742C89.9265 169.307 90.4036 169.757 90.9337 170.061C91.4638 170.366 92.0353 170.52 92.612 170.512H139.624C140.833 170.485 141.992 169.854 142.874 168.742C143.755 167.631 144.297 166.118 144.392 164.5L150.464 38.6139C150.508 37.8425 150.433 37.0671 150.242 36.3371C150.051 35.607 149.749 34.9383 149.355 34.3733C148.961 33.8083 148.484 33.3595 147.954 33.0554C147.424 32.7513 146.852 32.5985 146.276 32.6068Z" fill="#407BFF"/>
<path opacity="0.7" d="M144.784 32.6068H99.256C98.0486 32.6352 96.8924 33.2663 96.0131 34.377C95.1337 35.4877 94.5943 36.9982 94.5 38.6139L88.424 164.5C88.3796 165.271 88.4552 166.047 88.6461 166.777C88.837 167.507 89.1389 168.177 89.5327 168.742C89.9265 169.307 90.4036 169.757 90.9337 170.061C91.4638 170.366 92.0353 170.52 92.612 170.512H138.132C139.341 170.485 140.5 169.854 141.382 168.742C142.263 167.631 142.805 166.118 142.9 164.5L148.972 38.6139C149.016 37.8425 148.941 37.0671 148.75 36.3371C148.559 35.607 148.257 34.9383 147.863 34.3733C147.469 33.8083 146.992 33.3595 146.462 33.0554C145.932 32.7513 145.36 32.5985 144.784 32.6068Z" fill="white"/>
<path d="M140.944 161.209H90.864C90.6767 161.209 90.4913 161.158 90.3193 161.058C90.1473 160.959 89.9924 160.813 89.8642 160.63C89.7359 160.447 89.6371 160.23 89.5737 159.993C89.5104 159.757 89.4839 159.505 89.496 159.254L94.992 45.3399C95.0143 44.8747 95.1677 44.4383 95.421 44.1192C95.6744 43.8002 96.0086 43.6225 96.356 43.6221H146.44C146.627 43.6223 146.813 43.6741 146.985 43.7742C147.157 43.8744 147.312 44.0208 147.44 44.2044C147.568 44.388 147.667 44.6049 147.73 44.8418C147.794 45.0786 147.82 45.3304 147.808 45.5815L142.312 159.491C142.29 159.957 142.136 160.394 141.881 160.713C141.627 161.032 141.292 161.209 140.944 161.209Z" fill="white"/>
<path d="M129.816 39.897H111.612C111.519 39.8981 111.426 39.8731 111.34 39.8236C111.254 39.774 111.176 39.701 111.112 39.6091C111.048 39.5172 110.999 39.4086 110.968 39.2899C110.937 39.1713 110.925 39.0453 110.932 38.92C110.951 38.6596 111.039 38.4173 111.181 38.2384C111.323 38.0594 111.509 37.9563 111.704 37.9483H129.908C130.002 37.9465 130.094 37.9708 130.18 38.0198C130.267 38.0687 130.344 38.1412 130.408 38.2327C130.472 38.3241 130.521 38.4325 130.552 38.5508C130.583 38.6692 130.595 38.7949 130.588 38.92C130.571 39.1813 130.482 39.425 130.34 39.605C130.198 39.785 130.012 39.8889 129.816 39.897Z" fill="white"/>
<path d="M115.608 165.993C115.578 166.636 115.369 167.241 115.02 167.685C114.672 168.129 114.212 168.38 113.732 168.387C113.501 168.39 113.272 168.329 113.06 168.208C112.848 168.087 112.656 167.908 112.497 167.684C112.339 167.459 112.216 167.193 112.137 166.902C112.059 166.611 112.025 166.302 112.04 165.993C112.07 165.35 112.28 164.747 112.628 164.304C112.976 163.861 113.436 163.611 113.916 163.604C114.146 163.6 114.375 163.66 114.587 163.781C114.799 163.901 114.991 164.079 115.15 164.303C115.308 164.527 115.431 164.793 115.51 165.084C115.589 165.374 115.622 165.684 115.608 165.993Z" fill="white"/>
<path opacity="0.2" d="M135.488 75.1553H92.7242L90.0042 131.468H135.488C136.675 131.466 137.813 130.832 138.652 129.706C139.492 128.58 139.965 127.054 139.968 125.461V81.1838C139.969 79.5873 139.498 78.0555 138.658 76.9251C137.818 75.7947 136.678 75.1581 135.488 75.1553Z" fill="#407BFF"/>
<path d="M131.504 70.1689H79.096C76.6217 70.1689 74.616 72.8608 74.616 76.1814V120.475C74.616 123.796 76.6217 126.487 79.096 126.487H131.504C133.978 126.487 135.984 123.796 135.984 120.475V76.1814C135.984 72.8608 133.978 70.1689 131.504 70.1689Z" fill="#407BFF"/>
<path d="M73.184 69.5202C73.0791 69.5196 72.9785 69.4637 72.904 69.3645L72.184 68.4036C72.1087 68.3025 72.0664 68.1654 72.0664 68.0224C72.0664 67.8795 72.1087 67.7424 72.184 67.6413C72.2594 67.5402 72.3615 67.4834 72.468 67.4834C72.5746 67.4834 72.6767 67.5402 72.752 67.6413L73.468 68.6076C73.5425 68.7081 73.5844 68.8442 73.5844 68.986C73.5844 69.1279 73.5425 69.2639 73.468 69.3645C73.4307 69.4142 73.3863 69.4536 73.3376 69.4803C73.2889 69.507 73.2367 69.5206 73.184 69.5202Z" fill="#407BFF"/>
<path d="M72.1 72.891H71.088C70.9819 72.891 70.8802 72.8345 70.8051 72.7338C70.7301 72.6331 70.688 72.4966 70.688 72.3542C70.688 72.2118 70.7301 72.0753 70.8051 71.9746C70.8802 71.8739 70.9819 71.8174 71.088 71.8174H72.1C72.2061 71.8174 72.3078 71.8739 72.3828 71.9746C72.4578 72.0753 72.5 72.2118 72.5 72.3542C72.5 72.4966 72.4578 72.6331 72.3828 72.7338C72.3078 72.8345 72.2061 72.891 72.1 72.891Z" fill="#407BFF"/>
<path d="M75.7321 68.0696C75.6307 68.0699 75.533 68.0185 75.4587 67.9259C75.3844 67.8332 75.3392 67.7061 75.3321 67.5703L75.2601 66.2122C75.2563 66.1416 75.2629 66.0708 75.2795 66.0037C75.2962 65.9366 75.3226 65.8746 75.3571 65.8212C75.3917 65.7678 75.4338 65.7242 75.481 65.6927C75.5282 65.6612 75.5795 65.6425 75.6321 65.6378C75.7376 65.6289 75.8414 65.6765 75.9208 65.77C76.0003 65.8636 76.0489 65.9955 76.0561 66.137L76.1321 67.4952C76.1359 67.5657 76.1293 67.6366 76.1126 67.7037C76.096 67.7707 76.0696 67.8328 76.035 67.8861C76.0005 67.9395 75.9584 67.9832 75.9112 68.0147C75.864 68.0462 75.8127 68.0648 75.7601 68.0696H75.7321Z" fill="#407BFF"/>
<path d="M109.776 120.695L125.868 142.286V120.695H109.776Z" fill="#407BFF"/>
<path d="M114.188 111.236L113.388 106.679C113.186 105.481 113.186 104.237 113.388 103.039L114.5 96.5487C114.955 93.7811 114.708 90.8888 113.8 88.3303C112.891 85.7718 111.372 83.6935 109.484 82.4248C109.519 82.3054 109.55 82.1836 109.576 82.0598C109.641 81.6661 109.649 81.2588 109.597 80.8614C109.545 80.4639 109.436 80.0839 109.275 79.7432C109.114 79.4025 108.905 79.1077 108.659 78.8756C108.413 78.6435 108.135 78.4787 107.842 78.3906C107.548 78.3025 107.245 78.2928 106.949 78.362C106.653 78.4313 106.37 78.5781 106.116 78.7942C105.862 79.0103 105.642 79.2914 105.469 79.6215C105.296 79.9515 105.173 80.324 105.108 80.7177C105.088 80.8432 105.076 80.9707 105.072 81.0989C102.961 81.1653 100.927 82.175 99.2913 83.9681C97.6561 85.7611 96.5133 88.2349 96.0438 90.9979L94.9598 97.4936C94.7607 98.6895 94.3643 99.8103 93.7998 100.774L91.6438 104.451C91.4329 104.812 91.2935 105.238 91.2385 105.691C91.1836 106.143 91.2148 106.607 91.3294 107.039C91.444 107.471 91.6382 107.857 91.8939 108.161C92.1496 108.465 92.4585 108.677 92.7918 108.778L111.792 114.489C112.124 114.586 112.469 114.568 112.795 114.438C113.12 114.308 113.416 114.07 113.655 113.745C113.894 113.421 114.068 113.021 114.161 112.583C114.254 112.144 114.263 111.681 114.188 111.236Z" fill="white"/>
<path d="M99.8397 112.643C99.6952 112.6 99.545 112.606 99.4025 112.659C99.26 112.713 99.1296 112.813 99.0228 112.95C98.916 113.088 98.8361 113.259 98.7902 113.447C98.7443 113.636 98.7338 113.837 98.7597 114.033C98.8688 114.896 99.1667 115.695 99.6155 116.33C100.064 116.964 100.644 117.405 101.28 117.596C101.916 117.787 102.58 117.72 103.188 117.403C103.795 117.086 104.319 116.533 104.692 115.815C104.777 115.653 104.831 115.466 104.849 115.27C104.868 115.073 104.85 114.873 104.798 114.688C104.745 114.503 104.659 114.338 104.548 114.208C104.437 114.078 104.303 113.986 104.16 113.942L99.8397 112.643Z" fill="white"/>
<path d="M85.2477 103.607C85.1486 103.608 85.0509 103.576 84.9635 103.513C84.8762 103.45 84.802 103.359 84.7477 103.247C82.8585 99.4487 82.171 94.7985 82.8363 90.3196C83.5017 85.8406 85.4655 81.8998 88.2957 79.364C88.4284 79.2458 88.5905 79.2031 88.7465 79.2454C88.9026 79.2877 89.0397 79.4114 89.1277 79.5894C89.2158 79.7674 89.2476 79.985 89.2161 80.1944C89.1845 80.4038 89.0923 80.5878 88.9597 80.706C86.3976 83.0091 84.6214 86.5829 84.0214 90.6424C83.4214 94.7019 84.0466 98.915 85.7597 102.356C85.8482 102.534 85.8807 102.751 85.8499 102.96C85.8192 103.169 85.7277 103.354 85.5957 103.473C85.4926 103.564 85.3712 103.611 85.2477 103.607Z" fill="white"/>
<path d="M87.7882 101.321C87.6898 101.321 87.5932 101.287 87.5067 101.225C87.4202 101.162 87.3465 101.072 87.2922 100.962C85.8542 98.0681 85.3309 94.5267 85.8371 91.1155C86.3434 87.7043 87.8378 84.7022 89.9922 82.7688C90.0578 82.7099 90.1315 82.669 90.2089 82.6483C90.2864 82.6276 90.3661 82.6277 90.4435 82.6483C90.521 82.669 90.5946 82.71 90.6603 82.7689C90.7259 82.8278 90.7823 82.9034 90.8262 82.9915C90.87 83.0797 90.9005 83.1785 90.9159 83.2825C90.9313 83.3864 90.9313 83.4934 90.9159 83.5973C90.9005 83.7013 90.8699 83.8001 90.8261 83.8882C90.7822 83.9763 90.7258 84.052 90.6602 84.1108C88.7692 85.8044 87.457 88.4368 87.0122 91.4288C86.5673 94.4208 87.0263 97.5274 88.2882 100.065C88.3766 100.243 88.4091 100.46 88.3783 100.669C88.3476 100.879 88.2562 101.063 88.1242 101.182C88.0246 101.271 87.9079 101.32 87.7882 101.321Z" fill="white"/>
<path d="M90.3319 99.0397C90.2338 99.0404 90.1371 99.0084 90.0505 98.9466C89.964 98.8847 89.8902 98.795 89.8359 98.6854C89.3458 97.7006 89.0052 96.5957 88.8336 95.434C88.6621 94.2723 88.6629 93.0766 88.836 91.9153C89.0091 90.7541 89.3512 89.65 89.8426 88.6663C90.334 87.6827 90.9651 86.8387 91.6999 86.1827C91.8319 86.0726 91.9907 86.0356 92.1427 86.0796C92.2948 86.1235 92.4281 86.2449 92.5147 86.4182C92.6014 86.5916 92.6344 86.8032 92.607 87.0087C92.5796 87.2141 92.4939 87.3972 92.3679 87.5194C91.7652 88.0593 91.2478 88.7532 90.845 89.5616C90.4423 90.3699 90.1622 91.2768 90.0206 92.2305C89.8791 93.1841 89.879 94.1659 90.0202 95.1196C90.1615 96.0733 90.4413 96.9804 90.8439 97.7889C90.9313 97.9666 90.9631 98.1834 90.9324 98.3923C90.9017 98.6013 90.811 98.7856 90.6799 98.9055C90.5767 98.9967 90.4553 99.0435 90.3319 99.0397Z" fill="white"/>
<path d="M119.84 114.929C119.706 114.929 119.576 114.868 119.47 114.757C119.365 114.645 119.29 114.49 119.259 114.315C119.227 114.14 119.24 113.956 119.295 113.792C119.35 113.628 119.445 113.493 119.564 113.41C122.305 111.51 124.371 108.227 125.308 104.283C126.246 100.339 125.978 96.0565 124.564 92.3773C124.521 92.2829 124.493 92.1775 124.482 92.0679C124.47 91.9583 124.476 91.8467 124.498 91.7401C124.521 91.6336 124.559 91.5343 124.611 91.4486C124.663 91.3628 124.728 91.2924 124.801 91.2417C124.875 91.191 124.955 91.1612 125.037 91.154C125.12 91.1469 125.202 91.1625 125.28 91.2001C125.357 91.2376 125.428 91.2963 125.488 91.3723C125.548 91.4483 125.596 91.5401 125.628 91.6419C126.4 93.6524 126.87 95.8474 127.01 98.1016C127.151 100.356 126.959 102.625 126.445 104.78C125.932 106.934 125.107 108.932 124.019 110.659C122.93 112.385 121.598 113.807 120.1 114.843C120.019 114.897 119.93 114.926 119.84 114.929Z" fill="white"/>
<path d="M118.436 111.284C118.302 111.283 118.172 111.223 118.066 111.111C117.961 111 117.886 110.844 117.854 110.669C117.823 110.494 117.836 110.31 117.891 110.146C117.946 109.982 118.041 109.848 118.16 109.765C119.161 109.072 120.05 108.122 120.777 106.967C121.504 105.813 122.055 104.478 122.397 103.038C122.739 101.598 122.866 100.082 122.771 98.5756C122.676 97.0696 122.361 95.6035 121.844 94.2611C121.771 94.071 121.757 93.8497 121.805 93.6459C121.854 93.442 121.96 93.2723 122.102 93.1741C122.244 93.0758 122.408 93.0571 122.56 93.122C122.712 93.187 122.839 93.3302 122.912 93.5203C123.502 95.0506 123.861 96.7218 123.969 98.4385C124.077 100.155 123.931 101.883 123.541 103.525C123.151 105.166 122.524 106.688 121.695 108.004C120.867 109.319 119.853 110.403 118.712 111.193C118.627 111.254 118.532 111.285 118.436 111.284Z" fill="white"/>
<path d="M117.032 107.639C116.898 107.636 116.769 107.574 116.665 107.462C116.56 107.35 116.486 107.195 116.455 107.02C116.423 106.846 116.436 106.662 116.49 106.499C116.545 106.335 116.638 106.2 116.756 106.115C117.4 105.67 117.972 105.059 118.44 104.317C118.908 103.575 119.262 102.717 119.483 101.791C119.703 100.865 119.785 99.8894 119.724 98.9208C119.663 97.9523 119.461 97.0093 119.128 96.1459C119.055 95.9558 119.041 95.7345 119.089 95.5306C119.138 95.3268 119.244 95.1571 119.386 95.0588C119.528 94.9606 119.692 94.9419 119.844 95.0068C119.996 95.0717 120.123 95.215 120.196 95.4051C121.01 97.5312 121.162 100.004 120.619 102.28C120.076 104.557 118.883 106.452 117.3 107.548C117.217 107.606 117.125 107.637 117.032 107.639Z" fill="white"/>
<path d="M81.844 38.0333H78.788C78.7087 38.036 78.6326 38.0763 78.5733 38.1471C78.514 38.2178 78.4753 38.3144 78.464 38.4198L77.824 46.601C77.8194 46.6503 77.8228 46.7004 77.8338 46.7478C77.8448 46.7952 77.8632 46.8389 77.8878 46.876C77.9125 46.9131 77.9427 46.9428 77.9765 46.9629C78.0103 46.9831 78.047 46.9933 78.084 46.9929H81.14C81.2199 46.99 81.2964 46.949 81.3558 46.8771C81.4152 46.8053 81.4536 46.7074 81.464 46.601L82.104 38.4198C82.1086 38.3708 82.1053 38.321 82.0943 38.2738C82.0832 38.2266 82.0647 38.1832 82.04 38.1465C82.0154 38.1099 81.9851 38.0807 81.9512 38.0612C81.9174 38.0417 81.8808 38.0321 81.844 38.0333Z" fill="#407BFF"/>
<path opacity="0.4" d="M81.568 38.0332H78.788C78.7087 38.0359 78.6326 38.0762 78.5733 38.1469C78.514 38.2177 78.4753 38.3143 78.464 38.4197L77.824 46.6009C77.8194 46.6502 77.8228 46.7002 77.8338 46.7477C77.8448 46.7951 77.8632 46.8388 77.8878 46.8759C77.9125 46.913 77.9427 46.9426 77.9765 46.9628C78.0103 46.9829 78.047 46.9932 78.084 46.9928H80.884C80.9635 46.9897 81.0395 46.9485 81.0982 46.8766C81.1569 46.8046 81.1945 46.7068 81.204 46.6009L81.844 38.4197C81.8497 38.3686 81.8466 38.3164 81.835 38.2671C81.8233 38.2178 81.8034 38.1728 81.7767 38.1354C81.7501 38.0981 81.7174 38.0695 81.6812 38.0518C81.645 38.034 81.6063 38.0277 81.568 38.0332Z" fill="white"/>
<path d="M66.5282 189.311C66.9282 189.311 67.3282 189.231 67.4682 188.984C67.5022 188.917 67.5205 188.839 67.5205 188.758C67.5205 188.678 67.5022 188.599 67.4682 188.533C67.4099 188.412 67.3199 188.326 67.2162 188.291C66.6722 188.093 65.5682 188.962 65.5202 189C65.5077 189.01 65.4979 189.026 65.4922 189.044C65.4865 189.062 65.4851 189.082 65.4882 189.102C65.4911 189.123 65.4988 189.143 65.5102 189.158C65.5217 189.173 65.5363 189.184 65.5522 189.188C65.8743 189.266 66.2008 189.307 66.5282 189.311ZM67.0162 188.468C67.0653 188.46 67.115 188.46 67.1642 188.468C67.2278 188.489 67.2834 188.541 67.3202 188.613C67.3762 188.742 67.3602 188.807 67.3202 188.839C67.1802 189.123 66.3602 189.129 65.7562 189.016C66.1441 188.72 66.5728 188.534 67.0162 188.468Z" fill="#407BFF"/>
<path d="M65.5439 189.188H65.5759C65.9759 188.952 66.7039 188.012 66.6279 187.519C66.6279 187.406 66.5439 187.261 66.3319 187.234C66.2569 187.223 66.181 187.232 66.1088 187.262C66.0365 187.291 65.9696 187.34 65.9119 187.406C65.5119 187.862 65.4679 189.016 65.4639 189.081C65.4634 189.1 65.4664 189.118 65.4727 189.135C65.479 189.152 65.4884 189.167 65.4999 189.177C65.5135 189.186 65.5288 189.19 65.5439 189.188ZM66.2799 187.427H66.3239C66.4639 187.427 66.4759 187.519 66.4759 187.54C66.5239 187.835 66.0199 188.576 65.6319 188.898C65.6564 188.405 65.7964 187.936 66.0319 187.556C66.1012 187.476 66.1887 187.431 66.2799 187.427Z" fill="#407BFF"/>
<path d="M65.2161 179.021H61.9761V189.086H65.2161V179.021Z" fill="#FF8B7B"/>
<path d="M38.48 184.287L41.716 184.759L43.824 174.989L40.588 174.517L38.48 184.287Z" fill="#FF8B7B"/>
<path d="M43.2201 185.742C43.6201 185.881 44.0201 185.94 44.2001 185.742C44.244 185.687 44.2739 185.615 44.2854 185.536C44.2969 185.456 44.2894 185.375 44.2641 185.301C44.2476 185.234 44.2215 185.173 44.1872 185.119C44.1528 185.066 44.111 185.022 44.0641 184.99C43.5641 184.62 42.3241 185.087 42.2721 185.103C42.2568 185.108 42.2432 185.12 42.2332 185.136C42.2232 185.153 42.2172 185.173 42.2161 185.194C42.216 185.215 42.2205 185.236 42.229 185.254C42.2375 185.273 42.2497 185.287 42.2641 185.296C42.5727 185.481 42.8925 185.63 43.2201 185.742ZM43.8521 185.097C43.9006 185.113 43.9476 185.137 43.9921 185.167C44.0513 185.205 44.0973 185.273 44.1201 185.355C44.1521 185.5 44.1201 185.554 44.1201 185.586C43.9281 185.806 43.1241 185.543 42.5521 185.232C42.975 185.076 43.4166 185.032 43.8521 185.103V185.097Z" fill="#407BFF"/>
<path d="M42.2804 185.307H42.3124C42.7124 185.205 43.6324 184.55 43.6484 184.056C43.6484 183.938 43.6164 183.777 43.4124 183.68C43.3405 183.645 43.2642 183.63 43.188 183.636C43.1117 183.641 43.037 183.667 42.9684 183.712C42.4964 184.018 42.2324 185.124 42.2204 185.167C42.2137 185.183 42.2102 185.2 42.2102 185.218C42.2102 185.236 42.2137 185.254 42.2204 185.269C42.2272 185.282 42.2362 185.292 42.2467 185.298C42.2573 185.305 42.2688 185.308 42.2804 185.307ZM43.3204 183.863H43.3684C43.5004 183.927 43.4964 184.002 43.4964 184.024C43.4964 184.324 42.8564 184.866 42.4164 185.044C42.5272 184.579 42.7458 184.175 43.0404 183.889C43.1282 183.835 43.2277 183.826 43.3204 183.863Z" fill="#407BFF"/>
<path d="M41.8881 184.356L38.3481 182.993C38.2873 182.968 38.222 182.973 38.1635 183.007C38.1051 183.04 38.0571 183.1 38.0281 183.175L36.7241 186.649C36.6936 186.737 36.678 186.833 36.6782 186.929C36.6785 187.026 36.6947 187.122 36.7256 187.21C36.7565 187.297 36.8014 187.375 36.8572 187.436C36.9129 187.498 36.9781 187.543 37.0481 187.567C38.2881 188.012 38.9081 188.152 40.4641 188.748C41.4201 189.118 43.3681 190.009 44.6921 190.519C46.0161 191.029 46.5041 189.36 45.9921 188.995C43.6961 187.357 42.9601 186.037 42.3521 184.813C42.243 184.591 42.0784 184.429 41.8881 184.356Z" fill="#263238"/>
<path d="M65.1801 188.581H61.6441C61.5805 188.58 61.5188 188.61 61.4703 188.665C61.4218 188.72 61.3897 188.797 61.3801 188.882L60.8641 192.72C60.8525 192.816 60.8566 192.914 60.876 193.007C60.8953 193.101 60.9296 193.187 60.9764 193.261C61.0231 193.335 61.0813 193.395 61.1469 193.436C61.2124 193.477 61.2838 193.498 61.3561 193.498C62.6321 193.466 64.4721 193.364 66.0761 193.364C67.9521 193.364 68.9761 193.504 71.1761 193.504C72.5041 193.504 72.8161 191.7 72.2521 191.534C69.6961 190.793 68.2201 190.712 65.9721 188.898C65.7333 188.701 65.4602 188.592 65.1801 188.581Z" fill="#263238"/>
<path opacity="0.2" d="M65.2161 179.021H61.9761V184.212H65.2161V179.021Z" fill="black"/>
<path opacity="0.2" d="M40.588 174.522L43.824 174.989L42.652 180.411L39.5 179.558L40.588 174.522Z" fill="black"/>
<path d="M59.888 78.9131C59.888 78.9131 58.1 111.735 56.5 124.178C54.736 137.808 44.472 179.541 44.472 179.541L38.592 178.097C38.592 178.097 46.004 138.909 46.824 125.413C47.716 110.768 48.788 80.5826 48.788 80.5826L59.888 78.9131Z" fill="#407BFF"/>
<path opacity="0.3" d="M56.876 92.5489C57.196 90.7451 57.932 93.0159 58.788 96.9509C58.14 106.689 57.296 117.968 56.488 124.184C56.308 125.574 56.036 127.26 55.688 129.171C55.996 115.278 56.008 97.4286 56.876 92.5489Z" fill="black"/>
<path d="M65.9961 78.0215C65.9961 78.0215 68.3441 111.015 68.4241 124.269C68.5081 138.06 66.3921 183.207 66.3921 183.207H60.9001C60.9001 183.207 59.2521 138.865 58.5681 125.321C57.8201 110.559 54.6721 79.691 54.6721 79.691L65.9961 78.0215Z" fill="#407BFF"/>
<path d="M45.7002 176.884C45.7242 176.884 44.7762 179.745 44.7762 179.745L38.1602 178.135L38.5602 175.478L45.7002 176.884Z" fill="#263238"/>
<path d="M67.3523 180.271C67.3763 180.271 67.1403 183.33 67.1403 183.33H60.4683L60.1963 180.603L67.3523 180.271Z" fill="#263238"/>
<path d="M48.9481 48.6147C48.5081 49.7581 48.0241 50.9606 47.5841 52.147L46.2401 55.7223C45.8041 56.914 45.3761 58.1112 44.9641 59.3083C44.5521 60.5054 44.1641 61.6972 43.8321 62.8889L43.8001 61.01C44.0339 61.9748 44.3145 62.9181 44.6401 63.8337C44.7961 64.3061 44.9961 64.7571 45.1681 65.2241C45.3401 65.6912 45.5681 66.1367 45.7721 66.5769C46.1965 67.4869 46.6558 68.3666 47.1481 69.2127C47.3961 69.6368 47.6441 70.0717 47.9081 70.4796C48.1721 70.8876 48.4601 71.3117 48.7081 71.6607L48.7881 71.7788C48.9724 72.0503 49.0786 72.4011 49.0877 72.7682C49.0968 73.1353 49.0083 73.4948 48.8379 73.7822C48.6675 74.0697 48.4264 74.2663 48.1578 74.3369C47.8892 74.4076 47.6107 74.3476 47.3721 74.1676C46.9586 73.8551 46.558 73.5128 46.1721 73.1423C45.7721 72.788 45.4201 72.4176 45.0601 72.0257C44.3394 71.2324 43.6629 70.3694 43.0361 69.4436C42.3962 68.5028 41.8142 67.4938 41.2961 66.4266C40.7637 65.3393 40.3007 64.1936 39.9121 63.0017C39.7409 62.4958 39.7111 61.9241 39.8281 61.3912L39.8841 61.1389C40.1881 59.7377 40.5281 58.3796 40.9041 57.0483C41.2801 55.7169 41.6801 54.4124 42.1041 53.1294C42.5281 51.8464 42.9721 50.5795 43.4401 49.3287C43.9081 48.0779 44.3801 46.8539 44.9201 45.6031C45.2185 44.8873 45.7154 44.3584 46.3027 44.1314C46.89 43.9044 47.5204 43.9976 48.0568 44.3908C48.5932 44.784 48.9923 45.4453 49.1675 46.2312C49.3426 47.0171 49.2796 47.864 48.9921 48.5879L48.9481 48.6147Z" fill="#FF8B7B"/>
<path d="M51.2441 46.7032C51.4041 50.7992 47.9401 58.3202 47.9401 58.3202L40.8081 53.537C41.6748 50.1444 43.0162 47.0051 44.7601 44.2875C48.5321 38.6938 51.0961 42.9455 51.2441 46.7032Z" fill="#263238"/>
<path d="M46.4121 73.3999L47.8481 76.6209L50.8361 74.0548C50.3142 72.7997 49.4969 71.8122 48.5121 71.2472C48.2844 71.1496 48.0381 71.1647 47.818 71.2898C47.5979 71.4148 47.4184 71.6416 47.3121 71.929L46.4121 73.3999Z" fill="#FF8B7B"/>
<path d="M49.0439 77.9955L50.4319 77.6466C50.5487 77.6176 50.6602 77.5578 50.7597 77.4707C50.8592 77.3837 50.945 77.271 51.0119 77.1393C51.0788 77.0075 51.1257 76.8593 51.1497 76.7031C51.1737 76.5469 51.1745 76.3859 51.1519 76.2293L50.8359 74.082L47.8479 76.6481L48.0479 77.2976C48.1297 77.5489 48.2731 77.7552 48.4543 77.8821C48.6354 78.009 48.8435 78.049 49.0439 77.9955Z" fill="#FF8B7B"/>
<path d="M57.4723 26.1219C57.5003 26.4708 57.6643 26.7446 57.8323 26.7231C58.0003 26.7017 58.1123 26.4064 58.0803 26.0575C58.0483 25.7085 57.8883 25.4348 57.7203 25.4509C57.5523 25.467 57.4403 25.7676 57.4723 26.1219Z" fill="#263238"/>
<path d="M57.6401 26.7441C58.0447 27.7868 58.549 28.7541 59.1401 29.6215C58.7401 30.2496 57.9401 30.0671 57.9401 30.0671L57.6401 26.7441Z" fill="#FF5652"/>
<path d="M56.352 24.2705C56.3728 24.2746 56.394 24.2724 56.4141 24.2641C56.4342 24.2557 56.4526 24.2414 56.468 24.2222C56.6067 24.0479 56.7751 23.9219 56.9586 23.8555C57.142 23.789 57.3348 23.7841 57.52 23.841C57.5389 23.8491 57.5588 23.8519 57.5786 23.8492C57.5983 23.8465 57.6174 23.8383 57.6347 23.8252C57.652 23.8121 57.6671 23.7943 57.679 23.773C57.6909 23.7517 57.6994 23.7274 57.704 23.7014C57.714 23.6481 57.7084 23.5916 57.6883 23.5437C57.6682 23.4957 57.6352 23.46 57.596 23.4438C57.3621 23.3689 57.1182 23.3718 56.8853 23.4522C56.6525 23.5327 56.4378 23.6883 56.26 23.9054C56.2451 23.9245 56.2333 23.9474 56.2252 23.9728C56.2171 23.9981 56.2129 24.0254 56.2129 24.0531C56.2129 24.0807 56.2171 24.108 56.2252 24.1333C56.2333 24.1587 56.2451 24.1816 56.26 24.2007C56.2711 24.22 56.2849 24.2361 56.3007 24.2481C56.3165 24.26 56.334 24.2677 56.352 24.2705Z" fill="#263238"/>
<path d="M49.408 30.0088C50.172 33.117 51.188 38.8449 49.74 41.1426C49.74 41.1426 50.692 44.2723 55.076 43.773C59.904 43.2362 57.076 40.3105 57.076 40.3105C54.364 39.7737 54.18 37.1486 54.404 34.6416L49.408 30.0088Z" fill="#FF8B7B"/>
<path d="M48.704 42.2751C48.252 41.3035 47.748 40.1923 48.604 39.7789C49.544 39.3226 54.824 38.5818 56.704 39.2045C58.584 39.8272 58.2 41.8886 58.2 41.8886L48.704 42.2751Z" fill="#407BFF"/>
<path d="M64.1637 43.5852C64.8517 44.4334 65.5957 45.3728 66.3357 46.2318C67.0757 47.0907 67.8237 47.9711 68.5757 48.8193C69.3277 49.6674 70.0957 50.4673 70.8677 51.2457C71.6397 52.0241 72.4237 52.7327 73.2077 53.393L71.6077 53.189C72.2726 52.951 72.9018 52.5605 73.4677 52.0348C74.1288 51.4147 74.7425 50.708 75.2997 49.9251C75.9001 49.1005 76.4625 48.2274 76.9837 47.3108C77.2517 46.8437 77.5197 46.3713 77.7837 45.8828C78.0477 45.3943 78.2877 44.879 78.5077 44.428L78.5517 44.3421C78.7036 44.0307 78.9339 43.803 79.2005 43.7005C79.4671 43.598 79.7523 43.6276 80.004 43.7838C80.2557 43.94 80.4572 44.2125 80.5717 44.5515C80.6862 44.8905 80.7061 45.2735 80.6277 45.6305C80.4757 46.3284 80.3157 46.9243 80.1317 47.547C79.9477 48.1697 79.7557 48.7817 79.5397 49.3829C79.1017 50.6094 78.5893 51.7854 78.0077 52.8991C77.3971 54.0802 76.6856 55.1612 75.8877 56.1201C75.0045 57.1782 73.9797 58.0016 72.8677 58.5466C72.629 58.6595 72.3759 58.7076 72.1232 58.6883C71.8706 58.6689 71.6232 58.5824 71.3957 58.4338L71.2637 58.3426C70.2705 57.6875 69.3062 56.9562 68.3757 56.1523C67.4677 55.3632 66.5877 54.5418 65.7397 53.6614C64.8917 52.781 64.0717 51.8899 63.2717 50.9773C62.4717 50.0647 61.7037 49.1092 60.9237 48.0409C60.5086 47.4599 60.2773 46.6857 60.2783 45.8808C60.2793 45.0759 60.5126 44.3028 60.9291 43.7237C61.3456 43.1446 61.913 42.8044 62.5124 42.7746C63.1117 42.7448 63.6963 43.0276 64.1437 43.5637L64.1637 43.5852Z" fill="#FF8B7B"/>
<path d="M61.7197 40.7981C61.7197 40.7981 65.7517 46.0482 66.2197 78.5209C59.7717 80.6199 53.5677 81.3929 48.7757 80.5769C48.5477 76.5024 48.2077 62.3624 45.1277 47.4547C44.9954 46.8268 44.9618 46.1689 45.0291 45.5226C45.0963 44.8764 45.2629 44.256 45.5183 43.7007C45.7736 43.1454 46.1122 42.6675 46.5126 42.2972C46.9129 41.9269 47.3662 41.6723 47.8437 41.5496C48.4557 41.3886 49.0997 41.2436 49.7397 41.1309C52.1711 40.6642 54.6205 40.3863 57.0757 40.2988C58.6306 40.3159 60.1826 40.4827 61.7197 40.7981Z" fill="#263238"/>
<path d="M58.5918 46.4573C58.9918 50.5211 64.1918 58.3319 64.1918 58.3319L70.3638 49.7427C68.5304 47.1594 66.5482 44.7739 64.4358 42.6082C59.9118 38.0721 58.2318 42.6888 58.5918 46.4573Z" fill="#263238"/>
<path d="M80.2279 47.0574L82.2919 44.5182L79.8199 41.1094C79.0022 42.0438 78.4393 43.3167 78.2199 44.7276C78.1957 45.0501 78.2594 45.3735 78.3991 45.638C78.5388 45.9024 78.7451 46.0901 78.9799 46.1663L80.2279 47.0574Z" fill="#FF8B7B"/>
<path d="M83.0522 42.672L82.5202 40.9165C82.4752 40.7659 82.408 40.629 82.3228 40.5138C82.2376 40.3986 82.1361 40.3075 82.0242 40.246C81.9123 40.1844 81.7923 40.1536 81.6714 40.1553C81.5505 40.1571 81.4311 40.1914 81.3202 40.2563L79.8042 41.1098L82.2762 44.5186L82.7082 44.1268C82.8816 43.9745 83.0104 43.7466 83.0731 43.4815C83.1358 43.2165 83.1284 42.9306 83.0522 42.672Z" fill="#FF8B7B"/>
<path d="M48.792 26.3042C49.372 30.5988 49.548 33.1434 51.348 35.1887C54.056 38.2647 57.792 35.8705 58.148 31.4846C58.484 27.5336 57.48 21.1722 54.224 19.7872C50.968 18.4022 48.212 22.0096 48.792 26.3042Z" fill="#FF8B7B"/>
<path d="M55.1005 27.85C56.2245 28.1935 57.1005 26.4488 57.2205 25.955C56.6725 26.0247 55.7005 25.649 55.5085 25.3161C56.1085 25.3859 56.6885 24.3928 56.7605 24.0116C56.1239 23.8467 55.5601 23.3557 55.1885 22.6427C56.1605 22.6159 57.3285 20.3183 56.2605 18.2622C55.1925 16.2062 50.7285 17.9294 50.1005 16.4639C49.1645 17.194 49.9965 18.1656 49.9965 18.1656C49.9965 18.1656 43.6805 19.7761 46.5925 23.0454C44.4565 23.303 44.1565 26.6904 45.9365 28.4136C47.7165 30.1368 47.8085 31.2749 47.1005 31.1353C47.3845 31.8654 48.6525 31.962 48.7245 31.2534C49.0245 32.7404 49.8885 34.7535 51.8805 34.4261C53.8725 34.0986 55.8245 30.3569 55.1005 27.85Z" fill="#263238"/>
<path d="M47.144 22.5464C45.64 22.8255 44.956 21.6875 45.332 20.6836C43.468 21.9612 45.504 24.7849 47.144 22.5464Z" fill="#263238"/>
<path d="M53.544 27.1961C53.8028 28.0958 54.2606 28.8676 54.856 29.4078C55.656 30.1164 56.38 29.4078 56.244 28.3342C56.12 27.3464 55.556 25.7843 54.724 25.5051C54.5516 25.4292 54.3668 25.421 54.1911 25.4813C54.0154 25.5416 53.8562 25.6681 53.7322 25.8457C53.6083 26.0234 53.5247 26.2448 53.4913 26.4841C53.458 26.7233 53.4762 26.9703 53.544 27.1961Z" fill="#FF8B7B"/>
<path d="M155.212 178.507C152.252 169.134 151.056 158.107 154.444 158.564C157.92 159.014 157.512 175.635 158.076 177.46C156.992 178.711 155.212 178.507 155.212 178.507Z" fill="#407BFF"/>
<path d="M156.172 160.721C155.444 164.296 154.672 169.82 154.084 174.501C154.42 175.843 154.8 177.185 155.212 178.506C155.212 178.506 156.988 178.71 158.08 177.459C157.632 176.02 157.792 165.37 156.172 160.721Z" fill="#263238"/>
<path d="M156.188 176.788C155.26 156.871 157.788 138.41 164.444 139.242C170.156 139.961 161.828 173.491 161.988 177.357C159.372 178.72 156.188 176.788 156.188 176.788Z" fill="#407BFF"/>
<path d="M160.5 176.659C161.544 162.341 167.172 145.635 169.588 151.218C172.656 158.305 164.788 175.182 164.576 177.958C162.608 178.527 160.5 176.659 160.5 176.659Z" fill="#407BFF"/>
<path d="M159.448 144.562C158.772 144.412 158.396 143.848 158.44 143.048C158.488 142.146 159.04 141.25 159.552 141.239C159.8 141.239 160.216 141.411 160.32 142.651L159.92 142.716C159.872 142.125 159.74 141.776 159.564 141.776C159.292 141.776 158.876 142.442 158.844 143.086C158.816 143.623 159.04 143.923 159.516 144.031L159.448 144.562Z" fill="#407BFF"/>
<path d="M166.632 148.164C166.341 148.132 166.064 147.988 165.832 147.75L166.048 147.305C166.42 147.627 166.708 147.713 166.82 147.53C166.988 147.24 166.872 146.392 166.524 145.946C166.244 145.587 165.916 145.614 165.552 146.043L165.292 145.635C165.386 145.494 165.5 145.379 165.627 145.298C165.755 145.217 165.893 145.172 166.034 145.165C166.175 145.158 166.316 145.189 166.447 145.257C166.579 145.325 166.699 145.428 166.8 145.56C167.288 146.183 167.452 147.321 167.132 147.863C167.073 147.963 166.997 148.043 166.91 148.096C166.823 148.148 166.727 148.171 166.632 148.164Z" fill="#407BFF"/>
<path d="M156.828 156.27C156.586 156.293 156.346 156.197 156.153 155.999C155.96 155.801 155.827 155.516 155.78 155.196C155.62 154.321 155.94 153.242 156.428 153.017C156.656 152.915 157.096 152.904 157.48 154.047L157.112 154.273C156.932 153.736 156.712 153.446 156.556 153.527C156.3 153.645 156.056 154.445 156.156 155.067C156.248 155.604 156.556 155.787 157.012 155.69L157.072 156.227C156.992 156.25 156.91 156.265 156.828 156.27Z" fill="#407BFF"/>
<path d="M152.568 167.388C152.373 167.394 152.181 167.321 152.018 167.178C151.854 167.035 151.727 166.83 151.652 166.588C151.372 165.767 151.536 164.623 151.98 164.28C152.192 164.119 152.624 164.001 153.16 165.031L152.832 165.337C152.576 164.849 152.332 164.629 152.18 164.747C151.944 164.929 151.816 165.778 152.016 166.357C152.18 166.835 152.492 166.964 152.944 166.749L153.076 167.259C152.914 167.342 152.742 167.385 152.568 167.388Z" fill="#407BFF"/>
<path d="M159.656 151.181C159.615 151.181 159.574 151.164 159.54 151.133C159.292 150.948 159.101 150.649 159.004 150.291C158.907 149.933 158.91 149.54 159.012 149.184C159.128 148.828 159.326 148.531 159.578 148.337C159.829 148.144 160.12 148.064 160.408 148.11C160.656 148.17 161.236 148.465 161.276 149.893C161.276 149.964 161.255 150.032 161.217 150.083C161.18 150.133 161.129 150.161 161.076 150.161C161.023 150.161 160.972 150.133 160.935 150.083C160.897 150.032 160.876 149.964 160.876 149.893C160.852 149.147 160.664 148.696 160.336 148.615C160.137 148.594 159.938 148.656 159.767 148.794C159.595 148.931 159.46 149.137 159.38 149.383C159.236 149.839 159.38 150.301 159.78 150.682C159.815 150.715 159.841 150.762 159.855 150.816C159.869 150.87 159.869 150.929 159.856 150.983C159.843 151.038 159.818 151.086 159.783 151.119C159.748 151.153 159.707 151.171 159.664 151.17L159.656 151.181Z" fill="white"/>
<path d="M164.396 165.67C164.35 165.671 164.306 165.65 164.27 165.611C164.235 165.571 164.212 165.516 164.204 165.456C164.198 165.421 164.197 165.386 164.202 165.351C164.206 165.317 164.216 165.284 164.23 165.254C164.244 165.225 164.263 165.199 164.284 165.179C164.306 165.16 164.33 165.146 164.356 165.139C164.9 164.989 165.2 164.661 165.208 164.215C165.19 163.948 165.111 163.696 164.981 163.492C164.851 163.288 164.678 163.143 164.484 163.077C164.124 162.959 163.804 163.222 163.592 163.813C163.58 163.845 163.564 163.873 163.545 163.896C163.525 163.92 163.502 163.938 163.477 163.949C163.452 163.961 163.426 163.965 163.4 163.963C163.373 163.961 163.348 163.952 163.324 163.936C163.3 163.921 163.279 163.899 163.262 163.873C163.244 163.846 163.231 163.815 163.223 163.782C163.214 163.749 163.21 163.713 163.212 163.678C163.214 163.643 163.22 163.608 163.232 163.577C163.33 163.221 163.519 162.922 163.765 162.735C164.011 162.547 164.298 162.482 164.576 162.551C164.858 162.645 165.111 162.858 165.297 163.158C165.483 163.459 165.592 163.831 165.608 164.221C165.608 164.559 165.48 165.375 164.44 165.665L164.396 165.67Z" fill="white"/>
<path d="M170.02 161.145C169.788 161.145 169.48 160.962 169.136 160.27L169.468 159.969C169.716 160.463 169.952 160.689 170.108 160.576C170.348 160.404 170.508 159.556 170.296 158.965C170.144 158.488 169.832 158.348 169.376 158.547L169.252 158.037C169.9 157.752 170.428 158.037 170.664 158.756C170.932 159.583 170.752 160.721 170.3 161.048C170.215 161.113 170.118 161.146 170.02 161.145Z" fill="#407BFF"/>
<path d="M168.828 181.914C168.831 179.05 168.066 176.279 166.672 174.109C166.809 174.082 166.934 173.991 167.025 173.851C167.116 173.711 167.167 173.532 167.168 173.347C167.167 173.137 167.104 172.936 166.993 172.788C166.882 172.641 166.732 172.558 166.576 172.558H153.184C153.038 172.56 152.898 172.636 152.792 172.77C152.686 172.904 152.621 173.087 152.61 173.282C152.599 173.477 152.643 173.671 152.733 173.825C152.823 173.979 152.952 174.082 153.096 174.114C152.22 175.48 151.585 177.092 151.238 178.833C150.89 180.573 150.84 182.396 151.09 184.166C151.341 185.936 151.885 187.607 152.683 189.056C153.481 190.505 154.512 191.693 155.7 192.533C155.571 192.622 155.468 192.768 155.407 192.946C155.347 193.123 155.333 193.323 155.368 193.513C155.402 193.703 155.483 193.871 155.598 193.991C155.713 194.112 155.855 194.177 156 194.176H163.756C163.928 194.174 164.092 194.082 164.213 193.919C164.334 193.757 164.403 193.536 164.404 193.306C164.404 193.147 164.371 192.991 164.31 192.855C164.248 192.719 164.161 192.608 164.056 192.533C165.496 191.514 166.702 189.986 167.543 188.115C168.384 186.244 168.828 184.1 168.828 181.914Z" fill="#263238"/>
</svg>
